<svg width="19" height="20" viewBox="0 0 19 20" fill="none" xmlns="http://www.w3.org/2000/svg">
<path d="M5.25 0C5.80228 3.3104e-07 6.25 0.447715 6.25 1V2H12.5V1C12.5 0.447715 12.9477 0 13.5 0H13.583C14.1353 0 14.583 0.447715 14.583 1V2C16.8842 2 18.75 3.79086 18.75 6V16C18.75 18.2091 16.8842 20 14.583 20H4.16699C1.86581 20 0 18.2091 0 16V6C0 3.79086 1.86581 2 4.16699 2V1C4.16699 0.447715 4.61471 0 5.16699 0H5.25ZM6.24512 4.10254C6.19379 4.60667 5.76768 5 5.25 5H5.16699C4.64933 5 4.22322 4.60665 4.17188 4.10254L4.16699 4C3.06875 4 2.16847 4.81579 2.08887 5.85059L2.08301 6V7H16.667V6C16.667 4.94579 15.817 4.08243 14.7393 4.00586L14.583 4C14.583 4.55228 14.1353 5 13.583 5H13.5C12.9823 5 12.5562 4.60667 12.5049 4.10254L12.5 4H6.25L6.24512 4.10254Z" fill="#959595"/>
</svg>
