<svg width="18" height="20" viewBox="0 0 18 20" fill="none" xmlns="http://www.w3.org/2000/svg">
<path d="M14.0928 0C14.8275 3.63953e-05 15.5368 0.269709 16.0859 0.757812C17.3241 1.85858 17.4357 3.75486 16.335 4.99316L11.5459 10.3789V16.7637C11.5459 17.0595 11.4915 17.3524 11.3848 17.627L11.2949 17.8291C10.7066 19.0057 9.27527 19.4829 8.09863 18.8945L7.20508 18.4473C6.18873 17.9391 5.5459 16.9 5.5459 15.7637V10.3809L0.757812 4.99316C0.318532 4.49897 0.0559229 3.87512 0.0078125 3.21973L0 3C0 1.34315 1.34315 0 3 0H14.0928ZM3 2C2.44772 2 2 2.44772 2 3C2 3.24491 2.09022 3.48101 2.25293 3.66406L7.29395 9.33594C7.4565 9.51895 7.5459 9.75521 7.5459 10V15.7637C7.5459 16.1423 7.7601 16.4887 8.09863 16.6582L8.99316 17.1055C9.18185 17.1998 9.41152 17.1233 9.50586 16.9346C9.53235 16.8816 9.5459 16.8229 9.5459 16.7637V10C9.5459 9.75518 9.63623 9.51896 9.79883 9.33594L14.8398 3.66406C15.2067 3.25131 15.1695 2.61984 14.7568 2.25293C14.5738 2.09025 14.3376 2.00004 14.0928 2H3Z" fill="white"/>
</svg>
