<svg width="19" height="19" viewBox="0 0 19 19" fill="none" xmlns="http://www.w3.org/2000/svg">
<path d="M8.5 0C13.1944 0 17 3.80558 17 8.5C17 10.489 16.3144 12.3166 15.1699 13.7646L15.5664 14.1514L18.707 17.293C19.0976 17.6835 19.0976 18.3165 18.707 18.707C18.3465 19.0675 17.779 19.0951 17.3867 18.79L17.293 18.707L14.1602 15.5742L13.7549 15.1777C12.3084 16.3176 10.4845 17 8.5 17C3.80558 17 0 13.1944 0 8.5C0 3.80558 3.80558 0 8.5 0ZM8.5 2C4.91015 2 2 4.91015 2 8.5C2 12.0899 4.91015 15 8.5 15C12.0899 15 15 12.0899 15 8.5C15 4.91015 12.0899 2 8.5 2Z" fill="white"/>
</svg>
